<svg xmlns="http://www.w3.org/2000/svg" xmlns:xlink="http://www.w3.org/1999/xlink" version="1.1" width="375" height="375" viewBox="0 0 375 375">
<defs>
<clipPath id="clip_0">
<path transform="matrix(.24,0,0,.24,0,0)" d="M0 0H1562.5V1562.5H0Z" fill-rule="evenodd"/>
</clipPath>
<clipPath id="clip_1">
<path transform="matrix(.24,0,0,.24,0,0)" d="M0 0H1562.5V1562.5H0Z" fill-rule="evenodd"/>
</clipPath>
<clipPath id="clip_2">
<path transform="matrix(.24,0,0,.24,0,0)" d="M107.11814 374.2458H1453.9932V1186.7459H107.11814Z" fill-rule="evenodd"/>
</clipPath>
</defs>
<g clip-path="url(#clip_2)">
<path transform="matrix(.15947065,0,0,.15947065,34.110559,94.71474)" d="M887.94 1125.68C841.77 1019.41006 773.18 812.52 840.56 591.60006 951.1 229.15 1384.82-30.74 1906.78 2.93 1976.0901 445.11 1805.28 859.36 1483.4401 1044.18 1266.65 1168.68 1042.0701 1154.18 935.7101 1139.3301 1044.6101 1056.79 1166.8501 950.7401 1289.05 816.4801 1477.67 609.26016 1603.5701 403.6301 1686.89 239.56012 1567.18 406.53013 1423.3301 586.91018 1251.46 771.21017 1127.45 904.2 1004.96 1021.94 887.94 1125.68Z" fill="#4a7c1b"/>
<path transform="matrix(.15947065,0,0,.15947065,34.110559,94.71474)" d="M748.79 1137.23C667.33999 1161.85 510.56999 1194.26 355.15998 1126.29 100.19 1014.77-52.43 676.24 16.61 298.36 345.07 285.47999 632.69 445.38 740.07998 695.89 812.4199 864.64 782.70999 1027.22 762.80996 1103.55 711.87997 1017.0801 644.93997 918.87008 557.4099 818.29006 422.33 663.05 283.07 553.68 170.48 478.92 282.08 580.47006 401.4 700.77 521.2 841.85 607.64 943.65 683.09 1043.03 748.79 1137.23Z" fill="#4a7c1b"/>
</g>
</svg>
