<svg viewBox="111.75 103.50000000000001 135 86.25" version="1.1" xmlns:xlink="http://www.w3.org/1999/xlink" xmlns="http://www.w3.org/2000/svg" style="max-height: 500px" width="135" height="86.25">
<defs>
<clipPath id="clip_0">
<path fill-rule="evenodd" d="M0 0H1562.5V1562.5H0Z" transform="matrix(.24,0,0,.24,0,0)"/>
</clipPath>
<clipPath id="clip_1">
<path fill-rule="evenodd" d="M0 0H1562.5V1562.5H0Z" transform="matrix(.24,0,0,.24,0,0)"/>
</clipPath>
<clipPath id="clip_2">
<path fill-rule="evenodd" d="M471.00907 446.07865H1027.259V780.4536H471.00907Z" transform="matrix(.24,0,0,.24,0,0)"/>
</clipPath>
<clipPath id="clip_3">
<path fill-rule="evenodd" d="M0 0H1562.5V1562.5H0Z" transform="matrix(.24,0,0,.24,0,0)"/>
</clipPath>
<path d="M.0546875 0V.71199038H.4178772C.49725343 .71199038 .55845138 .69515487 .60147097 .66148379 .64450076 .6278229 .6660156 .5799866 .6660156 .51797488 .6660156 .47864787 .65566 .44581605 .63494876 .41947938 .6142476 .3931427 .5845286 .37497459 .5457916 .36497499V.3639679C.58909609 .3553009 .6225789 .33680216 .64624026 .30847169 .66990157 .2801412 .6817322 .24331157 .6817322 .19798279 .6817322 .1353302 .65956118 .08666992 .6152191 .052001954 .5708771 .017333985 .5080414 0 .42671205 0H.0546875M.22569275 .4169922H.39089967C.42426554 .4169922 .4501241 .42448936 .46847535 .43948365 .48683677 .45448814 .49601747 .47564698 .49601747 .5029602 .49601747 .528951 .48683677 .5492757 .46847535 .5639343 .4501241 .5786031 .42426554 .5859375 .39089967 .5859375H.22569275V.4169922M.22569275 .12705994H.39570619C.43304954 .12705994 .4617208 .13471985 .48171998 .15003968 .5017192 .16536968 .51171877 .1870219 .51171877 .21499634 .51171877 .24498494 .5017192 .26797486 .48171998 .28396607 .4617208 .29995729 .43304954 .30795289 .39570619 .30795289H.22569275V.12705994Z" id="font_4_5"/>
<path d="M.329422-.020248414C.2694346-.020248414 .21644084-.008407593 .17044068 .015274048 .12444051 .038965864 .08843994 .07182821 .062438966 .113861087 .03643799 .15590413 .0234375 .20427959 .0234375 .25898744 .0234375 .31303407 .034937543 .36057536 .057937623 .40161134 .080937709 .4426473 .11327108 .4746755 .15493775 .49769593 .19660442 .52071639 .24476624 .53222659 .29942323 .53222659 .35275779 .53222659 .39925639 .5212148 .43891908 .49919129 .47859193 .47716777 .5095927 .44662986 .5319214 .4075775 .55426028 .36853538 .5654297 .32331849 .5654297 .27192689 .5654297 .2619171 .56476339 .2517395 .5634308 .24139405 .5620982 .23105876 .5604299 .22188314 .5584259 .21386719H.18043518C.18510437 .17718506 .2016042 .14766948 .22993469 .12532044 .25827537 .1029714 .29344688 .091796878 .33544923 .091796878 .36743165 .091796878 .39742027 .09830221 .42541505 .111312869 .45342 .124323528 .47475688 .14116414 .48942567 .16183472L.5764313 .09480286C.5557607 .06078593 .52325949 .033106489 .4789276 .011764526 .43459574-.009577434 .38476054-.020248414 .329422-.020248414M.1794281 .30189515H.4104309C.40776573 .33999125 .39642845 .36973063 .37641908 .39111329 .3564199 .41249595 .3307546 .42318727 .29942323 .42318727 .26743064 .42318727 .24060059 .4119924 .2189331 .38960267 .19726563 .3672231 .18409729 .33798728 .1794281 .30189515Z" id="font_4_40"/>
<path d="M.29989625-.01953125C.23855591-.01953125 .1900533-.0025278729 .15438843 .03147888 .11873373 .06549581 .10090637 .11151632 .10090637 .1695404V.39663697H.0048828127V.5126953H.10090637V.65374758L.25390626 .6867676V.5126953H.45687867V.39663697H.25390626V.19355774C.25390626 .1655426 .26157127 .14352925 .27690126 .1275177 .29223124 .11151632 .31122843 .103515628 .33389283 .103515628 .37921144 .103515628 .4138743 .12552388 .43788148 .1695404L.48387147 .07350159C.46587626 .044825239 .44004823 .022150675 .40638734 .0054779055 .37272645-.011194865 .3372294-.01953125 .29989625-.01953125Z" id="font_4_56"/>
<path d="M.3300476 .5283203C.37471519 .5283203 .41138206 .5128123 .44004823 .48179627 .4687144 .45078025 .48604838 .4065908 .49205018 .3492279L.36305238 .31420899C.36037699 .3455607 .35220338 .36990867 .3385315 .3872528 .32486979 .40459696 .30704246 .41326905 .28504945 .41326905 .25638328 .41326905 .23388164 .40142823 .21754456 .37774659 .20120748 .35406495 .19303894 .32120768 .19303894 .2791748V0H.040039064V.5122223H.16203308L.18504334 .42926026H.18605042C.2000478 .46061198 .2197113 .48495994 .2450409 .5023041 .27038066 .51964828 .29871623 .5283203 .3300476 .5283203Z" id="font_4_54"/>
<path d="M.34605409-.025390625C.2873586-.025390625 .23449707-.016220093 .18746948 .0021209717 .14045207 .020472208 .10243225 .047490438 .073410037 .08317566 .04439799 .118871059 .027226767 .16240947 .021896363 .2137909L.17790222 .24282837C.18325298 .20011394 .2019399 .16590882 .23396302 .14021302 .2659963 .11451721 .30569969 .10166931 .35307313 .10166931 .39578758 .10166931 .42948915 .11050924 .45417787 .12818909 .47886659 .14586894 .49121095 .168396 .49121095 .19577027 .49121095 .21778362 .48186747 .23562622 .46318055 .2492981 .44450379 .26298014 .41414897 .27416484 .3721161 .28285218L.27305604 .30186463C.19433086 .3172048 .13678997 .3412272 .10043335 .37393189 .064076747 .40663658 .045898439 .4510142 .045898439 .5070648 .045898439 .55378726 .058069868 .59432986 .08241272 .6286926 .10676575 .6630656 .14045207 .6897583 .18347168 .70877078 .22649129 .7277934 .275355 .7373047 .33006288 .7373047 .38008119 .7373047 .42526756 .72879537 .46562196 .71177676 .5059865 .69476827 .53900656 .67091879 .564682 .6402283 .5903676 .6095479 .60621139 .57352706 .61221316 .5321655L.45916749 .49812318C.45448814 .53282168 .44013468 .5603485 .41610719 .58070376 .39208985 .60106918 .36272685 .61125186 .3280182 .61125186 .2933197 .61125186 .265625 .60291036 .24493408 .5862274 .22424317 .5695445 .2138977 .54852297 .2138977 .52316287 .2138977 .5018107 .22240193 .48479209 .2394104 .47210694 .25641886 .45943199 .28327433 .4494222 .3199768 .44207765L.42105104 .4230652C.5024312 .40970866 .5621338 .38601176 .6001587 .3519745 .6381938 .3179474 .6572113 .27190653 .6572113 .21385193 .6572113 .16446431 .6440379 .12174988 .61769106 .08570862 .5913442 .049677534 .5548248 .022150675 .50813296 .0031280518 .4614512-.0158844 .40742494-.025390625 .34605409-.025390625Z" id="font_4_26"/>
<path d="M.25160218-.014785767C.2069041-.014785767 .16737366-.0034535726 .13301087 .019210816 .09865824 .041885377 .07180786 .07356262 .052459718 .11424255 .033111574 .15492249 .0234375 .20226543 .0234375 .25627137 .0234375 .31095887 .033111574 .35847474 .052459718 .39881898 .07180786 .4391632 .09865824 .4706675 .13301087 .4933319 .16737366 .51600649 .2069041 .52734377 .25160218 .52734377 .3329824 .52734377 .39201866 .4896647 .42871095 .41430665V.7421875H.5827179V-.0001373291H.4547119L.43171693 .09820557H.43070985C.41270448 .06153361 .38835655 .033533735 .35766603 .014205933 .3269857-.0051218669 .29163108-.014785767 .25160218-.014785767M.3055725 .11425781C.33094279 .11425781 .35346986 .12059021 .3731537 .133255 .39283753 .14592998 .40818278 .16293335 .41918946 .18426514 .4302063 .2056071 .43571473 .22960918 .43571473 .25627137 .43571473 .2969513 .4235331 .3307902 .39916993 .3577881 .3748169 .38479615 .34361778 .39830018 .3055725 .39830018 .26819865 .39830018 .23716736 .38479615 .21247864 .3577881 .18778992 .3307902 .17544556 .2969513 .17544556 .25627137 .17544556 .21560161 .18778992 .1817627 .21247864 .15475464 .23716736 .12775676 .26819865 .11425781 .3055725 .11425781Z" id="font_4_39"/>
</defs>
<g clip-path="url(#clip_2)">
<path fill="#4a7c1b" d="M887.94 1125.68C841.77 1019.41006 773.18 812.52 840.56 591.60006 951.1 229.15 1384.82-30.74 1906.78 2.93 1976.0901 445.11 1805.28 859.36 1483.4401 1044.18 1266.65 1168.68 1042.0701 1154.18 935.7101 1139.3301 1044.6101 1056.79 1166.8501 950.7401 1289.05 816.4801 1477.67 609.26016 1603.5701 403.6301 1686.89 239.56012 1567.18 406.53013 1423.3301 586.91018 1251.46 771.21017 1127.45 904.2 1004.96 1021.94 887.94 1125.68Z" transform="matrix(.06566326,0,0,.06566326,116.4992,109.07473)"/>
<path fill="#4a7c1b" d="M748.79 1137.23C667.33999 1161.85 510.56999 1194.26 355.15998 1126.29 100.19 1014.77-52.43 676.24 16.61 298.36 345.07 285.47999 632.69 445.38 740.07998 695.89 812.4199 864.64 782.70999 1027.22 762.80996 1103.55 711.87997 1017.0801 644.93997 918.87008 557.4099 818.29006 422.33 663.05 283.07 553.68 170.48 478.92 282.08 580.47006 401.4 700.77 521.2 841.85 607.64 943.65 683.09 1043.03 748.79 1137.23Z" transform="matrix(.06566326,0,0,.06566326,116.4992,109.07473)"/>
</g>
<g clip-path="url(#clip_3)">










</g>
</svg>